<mxfile host="app.diagrams.net" modified="2022-06-07T11:45:33.953Z" agent="5.0 (Macintosh; Intel Mac OS X 10_15_7) AppleWebKit/537.36 (KHTML, like Gecko) Chrome/102.0.5005.61 Safari/537.36" etag="pJqPs4xUdFJtvplNd05R" version="19.0.0" type="github">
  <diagram id="C5RBs43oDa-KdzZeNtuy" name="Page-1">
    <mxGraphModel dx="946" dy="613" grid="1" gridSize="10" guides="1" tooltips="1" connect="1" arrows="1" fold="1" page="1" pageScale="1" pageWidth="827" pageHeight="1169" math="0" shadow="0">
      <root>
        <mxCell id="WIyWlLk6GJQsqaUBKTNV-0" />
        <mxCell id="WIyWlLk6GJQsqaUBKTNV-1" parent="WIyWlLk6GJQsqaUBKTNV-0" />
        <mxCell id="8Gg5BgtZQa50jn9rOU3_-10" value="" style="edgeStyle=orthogonalEdgeStyle;rounded=0;orthogonalLoop=1;jettySize=auto;html=1;" edge="1" parent="WIyWlLk6GJQsqaUBKTNV-1" source="8Gg5BgtZQa50jn9rOU3_-3" target="8Gg5BgtZQa50jn9rOU3_-9">
          <mxGeometry relative="1" as="geometry" />
        </mxCell>
        <mxCell id="8Gg5BgtZQa50jn9rOU3_-3" value="&lt;span style=&quot;&quot;&gt;Ask for input&lt;/span&gt;" style="shape=parallelogram;perimeter=parallelogramPerimeter;whiteSpace=wrap;html=1;fixedSize=1;" vertex="1" parent="WIyWlLk6GJQsqaUBKTNV-1">
          <mxGeometry x="330" y="240" width="120" height="60" as="geometry" />
        </mxCell>
        <mxCell id="8Gg5BgtZQa50jn9rOU3_-8" value="" style="edgeStyle=orthogonalEdgeStyle;rounded=0;orthogonalLoop=1;jettySize=auto;html=1;" edge="1" parent="WIyWlLk6GJQsqaUBKTNV-1" source="8Gg5BgtZQa50jn9rOU3_-6" target="8Gg5BgtZQa50jn9rOU3_-3">
          <mxGeometry relative="1" as="geometry" />
        </mxCell>
        <mxCell id="8Gg5BgtZQa50jn9rOU3_-6" value="Start" style="ellipse;whiteSpace=wrap;html=1;" vertex="1" parent="WIyWlLk6GJQsqaUBKTNV-1">
          <mxGeometry x="330" y="120" width="120" height="60" as="geometry" />
        </mxCell>
        <mxCell id="8Gg5BgtZQa50jn9rOU3_-9" value="Is the input&lt;br&gt;valid?" style="rhombus;whiteSpace=wrap;html=1;" vertex="1" parent="WIyWlLk6GJQsqaUBKTNV-1">
          <mxGeometry x="340" y="350" width="100" height="100" as="geometry" />
        </mxCell>
        <mxCell id="8Gg5BgtZQa50jn9rOU3_-21" value="" style="endArrow=classic;html=1;rounded=0;exitX=1;exitY=0.5;exitDx=0;exitDy=0;entryX=0;entryY=0.5;entryDx=0;entryDy=0;" edge="1" parent="WIyWlLk6GJQsqaUBKTNV-1" source="8Gg5BgtZQa50jn9rOU3_-9" target="8Gg5BgtZQa50jn9rOU3_-23">
          <mxGeometry relative="1" as="geometry">
            <mxPoint x="490" y="400" as="sourcePoint" />
            <mxPoint x="580" y="420" as="targetPoint" />
            <Array as="points">
              <mxPoint x="470" y="400" />
            </Array>
          </mxGeometry>
        </mxCell>
        <mxCell id="8Gg5BgtZQa50jn9rOU3_-22" value="No" style="edgeLabel;resizable=0;html=1;align=center;verticalAlign=middle;" connectable="0" vertex="1" parent="8Gg5BgtZQa50jn9rOU3_-21">
          <mxGeometry relative="1" as="geometry" />
        </mxCell>
        <mxCell id="8Gg5BgtZQa50jn9rOU3_-23" value="Error Message" style="rounded=0;whiteSpace=wrap;html=1;" vertex="1" parent="WIyWlLk6GJQsqaUBKTNV-1">
          <mxGeometry x="510" y="370" width="90" height="60" as="geometry" />
        </mxCell>
        <mxCell id="8Gg5BgtZQa50jn9rOU3_-32" value="" style="edgeStyle=orthogonalEdgeStyle;rounded=0;orthogonalLoop=1;jettySize=auto;html=1;" edge="1" parent="WIyWlLk6GJQsqaUBKTNV-1" source="8Gg5BgtZQa50jn9rOU3_-25" target="8Gg5BgtZQa50jn9rOU3_-31">
          <mxGeometry relative="1" as="geometry" />
        </mxCell>
        <mxCell id="8Gg5BgtZQa50jn9rOU3_-25" value="Print the right-angled triangle" style="whiteSpace=wrap;html=1;" vertex="1" parent="WIyWlLk6GJQsqaUBKTNV-1">
          <mxGeometry x="355" y="520" width="70" height="60" as="geometry" />
        </mxCell>
        <mxCell id="8Gg5BgtZQa50jn9rOU3_-27" value="" style="endArrow=classic;html=1;rounded=0;entryX=0.5;entryY=0;entryDx=0;entryDy=0;exitX=0.5;exitY=1;exitDx=0;exitDy=0;" edge="1" parent="WIyWlLk6GJQsqaUBKTNV-1" source="8Gg5BgtZQa50jn9rOU3_-9" target="8Gg5BgtZQa50jn9rOU3_-25">
          <mxGeometry relative="1" as="geometry">
            <mxPoint x="360" y="380" as="sourcePoint" />
            <mxPoint x="460" y="380" as="targetPoint" />
          </mxGeometry>
        </mxCell>
        <mxCell id="8Gg5BgtZQa50jn9rOU3_-28" value="Yes" style="edgeLabel;resizable=0;html=1;align=center;verticalAlign=middle;" connectable="0" vertex="1" parent="8Gg5BgtZQa50jn9rOU3_-27">
          <mxGeometry relative="1" as="geometry" />
        </mxCell>
        <mxCell id="8Gg5BgtZQa50jn9rOU3_-29" value="" style="endArrow=classic;html=1;rounded=0;exitX=0.5;exitY=0;exitDx=0;exitDy=0;entryX=1;entryY=0.5;entryDx=0;entryDy=0;" edge="1" parent="WIyWlLk6GJQsqaUBKTNV-1" source="8Gg5BgtZQa50jn9rOU3_-23" target="8Gg5BgtZQa50jn9rOU3_-3">
          <mxGeometry relative="1" as="geometry">
            <mxPoint x="520" y="299" as="sourcePoint" />
            <mxPoint x="620" y="299" as="targetPoint" />
            <Array as="points">
              <mxPoint x="555" y="270" />
            </Array>
          </mxGeometry>
        </mxCell>
        <mxCell id="8Gg5BgtZQa50jn9rOU3_-30" value="Return" style="edgeLabel;resizable=0;html=1;align=center;verticalAlign=middle;" connectable="0" vertex="1" parent="8Gg5BgtZQa50jn9rOU3_-29">
          <mxGeometry relative="1" as="geometry" />
        </mxCell>
        <mxCell id="8Gg5BgtZQa50jn9rOU3_-34" value="Yes" style="edgeStyle=orthogonalEdgeStyle;rounded=0;orthogonalLoop=1;jettySize=auto;html=1;" edge="1" parent="WIyWlLk6GJQsqaUBKTNV-1" source="8Gg5BgtZQa50jn9rOU3_-31" target="8Gg5BgtZQa50jn9rOU3_-33">
          <mxGeometry relative="1" as="geometry" />
        </mxCell>
        <mxCell id="8Gg5BgtZQa50jn9rOU3_-31" value="Exit?" style="shape=parallelogram;perimeter=parallelogramPerimeter;whiteSpace=wrap;html=1;fixedSize=1;" vertex="1" parent="WIyWlLk6GJQsqaUBKTNV-1">
          <mxGeometry x="330" y="645" width="120" height="60" as="geometry" />
        </mxCell>
        <mxCell id="8Gg5BgtZQa50jn9rOU3_-33" value="Stop" style="ellipse;whiteSpace=wrap;html=1;" vertex="1" parent="WIyWlLk6GJQsqaUBKTNV-1">
          <mxGeometry x="330" y="770" width="120" height="60" as="geometry" />
        </mxCell>
        <mxCell id="8Gg5BgtZQa50jn9rOU3_-35" value="" style="endArrow=classic;html=1;rounded=0;exitX=0;exitY=0.5;exitDx=0;exitDy=0;entryX=0;entryY=0.5;entryDx=0;entryDy=0;" edge="1" parent="WIyWlLk6GJQsqaUBKTNV-1" source="8Gg5BgtZQa50jn9rOU3_-31" target="8Gg5BgtZQa50jn9rOU3_-3">
          <mxGeometry relative="1" as="geometry">
            <mxPoint x="150" y="770" as="sourcePoint" />
            <mxPoint x="250" y="770" as="targetPoint" />
            <Array as="points">
              <mxPoint x="280" y="675" />
              <mxPoint x="280" y="270" />
            </Array>
          </mxGeometry>
        </mxCell>
        <mxCell id="8Gg5BgtZQa50jn9rOU3_-36" value="No" style="edgeLabel;resizable=0;html=1;align=center;verticalAlign=middle;" connectable="0" vertex="1" parent="8Gg5BgtZQa50jn9rOU3_-35">
          <mxGeometry relative="1" as="geometry" />
        </mxCell>
      </root>
    </mxGraphModel>
  </diagram>
</mxfile>
